<svg width="16397" height="3013" viewBox="0 0 16397 3013" fill="none" xmlns="http://www.w3.org/2000/svg">
<path d="M1477.97 249.615C1486.95 221.976 1526.05 221.976 1535.03 249.615L1779.22 1001.14C1796.62 1054.7 1846.53 1090.97 1902.85 1090.97L2693.05 1090.97C2722.11 1090.97 2734.2 1128.15 2710.69 1145.24L2071.4 1609.7C2025.84 1642.81 2006.77 1701.48 2024.18 1755.05L2268.36 2506.57C2277.34 2534.21 2245.71 2557.19 2222.2 2540.11L1582.91 2075.65C1537.35 2042.54 1475.65 2042.54 1430.09 2075.65L790.804 2540.11C767.293 2557.19 735.658 2534.21 744.639 2506.57L988.824 1755.05C1006.23 1701.48 987.162 1642.81 941.598 1609.7L302.314 1145.24C278.803 1128.15 290.886 1090.97 319.948 1090.97L1110.15 1090.97C1166.47 1090.97 1216.38 1054.7 1233.78 1001.14L1477.97 249.615Z" fill="#FDDA0D" stroke="#FFA41C" stroke-width="100"/>
<path d="M4823.97 249.615C4832.95 221.976 4872.05 221.976 4881.03 249.615L5125.22 1001.14C5142.62 1054.7 5192.53 1090.97 5248.85 1090.97L6039.05 1090.97C6068.11 1090.97 6080.2 1128.15 6056.69 1145.24L5417.4 1609.7C5371.84 1642.81 5352.77 1701.48 5370.18 1755.05L5614.36 2506.57C5623.34 2534.21 5591.71 2557.19 5568.2 2540.11L4928.91 2075.65C4883.35 2042.54 4821.65 2042.54 4776.09 2075.65L4136.8 2540.11C4113.29 2557.19 4081.66 2534.21 4090.64 2506.57L4334.82 1755.05C4352.23 1701.48 4333.16 1642.81 4287.6 1609.7L3648.31 1145.24C3624.8 1128.15 3636.89 1090.97 3665.95 1090.97L4456.15 1090.97C4512.47 1090.97 4562.38 1054.7 4579.78 1001.14L4823.97 249.615Z" stroke="#FFA41C" stroke-width="100"/>
<path d="M8169.97 249.615C8178.95 221.976 8218.05 221.976 8227.03 249.615L8471.22 1001.14C8488.62 1054.7 8538.53 1090.97 8594.85 1090.97L9385.05 1090.97C9414.11 1090.97 9426.2 1128.15 9402.69 1145.24L8763.4 1609.7C8717.84 1642.81 8698.77 1701.48 8716.18 1755.05L8960.36 2506.57C8969.34 2534.21 8937.71 2557.19 8914.2 2540.11L8274.91 2075.65C8229.35 2042.54 8167.65 2042.54 8122.09 2075.65L7482.8 2540.11C7459.29 2557.19 7427.66 2534.21 7436.64 2506.57L7680.82 1755.05C7698.23 1701.48 7679.16 1642.81 7633.6 1609.7L6994.31 1145.24C6970.8 1128.15 6982.89 1090.97 7011.95 1090.97L7802.15 1090.97C7858.47 1090.97 7908.38 1054.7 7925.78 1001.14L8169.97 249.615Z" stroke="#FFA41C" stroke-width="100"/>
<path d="M11516 249.615C11524.9 221.976 11564.1 221.976 11573 249.615L11817.2 1001.14C11834.6 1054.7 11884.5 1090.97 11940.9 1090.97L12731.1 1090.97C12760.1 1090.97 12772.2 1128.15 12748.7 1145.24L12109.4 1609.7C12063.8 1642.81 12044.8 1701.48 12062.2 1755.05L12306.4 2506.57C12315.3 2534.21 12283.7 2557.19 12260.2 2540.11L11620.9 2075.65C11575.3 2042.54 11513.7 2042.54 11468.1 2075.65L10828.8 2540.11C10805.3 2557.19 10773.7 2534.21 10782.6 2506.57L11026.8 1755.05C11044.2 1701.48 11025.2 1642.81 10979.6 1609.7L10340.3 1145.24C10316.8 1128.15 10328.9 1090.97 10357.9 1090.97L11148.1 1090.97C11204.5 1090.97 11254.4 1054.7 11271.8 1001.14L11516 249.615Z" stroke="#FFA41C" stroke-width="100"/>
<path d="M14862 249.615C14870.9 221.976 14910.1 221.976 14919 249.615L15163.2 1001.14C15180.6 1054.7 15230.5 1090.97 15286.9 1090.97L16077.1 1090.97C16106.1 1090.97 16118.2 1128.15 16094.7 1145.24L15455.4 1609.7C15409.8 1642.81 15390.8 1701.48 15408.2 1755.05L15652.4 2506.57C15661.3 2534.21 15629.7 2557.19 15606.2 2540.11L14966.9 2075.65C14921.3 2042.54 14859.7 2042.54 14814.1 2075.65L14174.8 2540.11C14151.3 2557.19 14119.7 2534.21 14128.6 2506.57L14372.8 1755.05C14390.2 1701.48 14371.2 1642.81 14325.6 1609.7L13686.3 1145.24C13662.8 1128.15 13674.9 1090.97 13703.9 1090.97L14494.1 1090.97C14550.5 1090.97 14600.4 1054.7 14617.8 1001.14L14862 249.615Z" stroke="#FFA41C" stroke-width="100"/>
</svg>
