<svg width="50" height="23" viewBox="0 0 50 23" fill="none" xmlns="http://www.w3.org/2000/svg">
<path d="M38.5993 0.233198C38.291 -0.0175974 37.9534 -0.0663798 37.5865 0.0881945C37.2202 0.241845 37.0367 0.522447 37.0367 0.926809V4.86598H0.925935C0.656165 4.86598 0.434253 4.95279 0.260535 5.12601C0.0868169 5.30015 0 5.52164 0 5.792V15.9251C0 16.1954 0.0868169 16.4168 0.260535 16.5911C0.434253 16.7653 0.656165 16.8512 0.925935 16.8512H37.0372V21.2985C37.0372 21.6839 37.2206 21.9645 37.587 22.1371C37.9534 22.2907 38.2915 22.2332 38.5998 21.9639L49.7107 11.7204C49.9039 11.5271 50 11.2954 50 11.0261C50 10.7743 49.9034 10.5523 49.7107 10.3601L38.5993 0.233198Z" fill="#ffffff"/>
</svg>
