<svg width="50" height="23" viewBox="0 0 50 23" fill="none" xmlns="http://www.w3.org/2000/svg">
<path d="M11.4007 0.233198C11.709 -0.0175974 12.0466 -0.0663798 12.4135 0.0881945C12.7798 0.241845 12.9633 0.522447 12.9633 0.926809V4.86598H49.0741C49.3438 4.86598 49.5657 4.95279 49.7395 5.12601C49.9132 5.30015 50 5.52164 50 5.792V15.9251C50 16.1954 49.9132 16.4168 49.7395 16.5911C49.5657 16.7653 49.3438 16.8512 49.0741 16.8512H12.9628V21.2985C12.9628 21.6839 12.7794 21.9645 12.413 22.1371C12.0466 22.2907 11.7085 22.2332 11.4002 21.9639L0.289334 11.7204C0.0960534 11.5271 2.01385e-06 11.2954 2.01385e-06 11.0261C2.01385e-06 10.7743 0.0966412 10.5523 0.289334 10.3601L11.4007 0.233198Z" fill="#ffffff"/>
</svg>
