<svg width="601" height="601" viewBox="0 0 601 601" fill="none" xmlns="http://www.w3.org/2000/svg">
<path d="M167.333 300.667L267.333 400.667L434 200.667M34 460.673V140.673C34 103.336 34 84.654 41.2663 70.3933C47.6577 57.849 57.849 47.6577 70.3933 41.2663C84.654 34 103.336 34 140.673 34H460.673C498.01 34 516.653 34 530.913 41.2663C543.457 47.6577 553.683 57.849 560.073 70.3933C567.333 84.64 567.333 103.3 567.333 140.564V460.787C567.333 498.05 567.333 516.683 560.073 530.93C553.683 543.473 543.457 553.683 530.913 560.073C516.667 567.333 498.033 567.333 460.77 567.333H140.564C103.3 567.333 84.64 567.333 70.3933 560.073C57.849 553.683 47.6577 543.473 41.2663 530.93C34 516.67 34 498.01 34 460.673Z" stroke="#222222" stroke-width="66.6667" stroke-linecap="round" stroke-linejoin="round"/>
</svg>
