<svg width="601" height="668" viewBox="0 0 601 668" fill="none" xmlns="http://www.w3.org/2000/svg">
<path d="M300.667 417.333V484M134 268.293C149.714 267.333 169.086 267.333 194 267.333H407.333C432.247 267.333 451.62 267.333 467.333 268.293M134 268.293C114.389 269.49 100.476 272.183 88.601 278.233C69.7847 287.82 54.4867 303.117 44.8993 321.933C34 343.327 34 371.327 34 427.333V474C34 530.007 34 558.007 44.8993 579.4C54.4867 598.217 69.7847 613.513 88.601 623.1C109.992 634 137.995 634 194 634H407.333C463.34 634 491.34 634 512.733 623.1C531.55 613.513 546.847 598.217 556.433 579.4C567.333 558.007 567.333 530.007 567.333 474V427.333C567.333 371.327 567.333 343.327 556.433 321.933C546.847 303.117 531.55 287.82 512.733 278.233C500.857 272.183 486.943 269.49 467.333 268.293M134 268.293V200.667C134 108.619 208.619 34 300.667 34C392.713 34 467.333 108.619 467.333 200.667V268.293" stroke="#222222" stroke-width="66.6667" stroke-linecap="round" stroke-linejoin="round"/>
</svg>
