<svg width="133" height="37" viewBox="0 0 133 37" fill="none" xmlns="http://www.w3.org/2000/svg">
<path d="M18.15 36.5C15.5833 36.5 13.2167 36.0667 11.05 35.2C8.91667 34.3 7.05 33.05 5.45 31.45C3.88333 29.8167 2.66667 27.9 1.8 25.7C0.933333 23.5 0.5 21.1 0.5 18.5C0.5 15.9 0.916667 13.5333 1.75 11.4C2.58333 9.23333 3.76667 7.35 5.3 5.75C6.86667 4.15 8.68333 2.91666 10.75 2.05C12.85 1.18333 15.15 0.749998 17.65 0.749998C19.2167 0.749998 20.8 1.01667 22.4 1.55C24 2.05 25.4833 2.75 26.85 3.65C28.2167 4.55 29.35 5.58333 30.25 6.75L28.4 8.7C27.6667 7.63333 26.7167 6.7 25.55 5.9C24.3833 5.06666 23.1167 4.41666 21.75 3.95C20.3833 3.48333 19.0167 3.25 17.65 3.25C15.55 3.25 13.6 3.63333 11.8 4.4C10.0333 5.13333 8.5 6.18333 7.2 7.55C5.93333 8.91667 4.93333 10.5333 4.2 12.4C3.5 14.2667 3.15 16.3 3.15 18.5C3.15 20.7333 3.51667 22.8 4.25 24.7C4.98333 26.6 6.01667 28.25 7.35 29.65C8.71667 31.0167 10.3 32.0833 12.1 32.85C13.9333 33.6167 15.95 34 18.15 34C19.4833 34 20.8 33.8167 22.1 33.45C23.4333 33.05 24.6333 32.5167 25.7 31.85C26.7667 31.15 27.6167 30.3667 28.25 29.5L29.6 31.7C28.8 32.6333 27.7667 33.4667 26.5 34.2C25.2667 34.9 23.9167 35.4667 22.45 35.9C21.0167 36.3 19.5833 36.5 18.15 36.5ZM39.8914 36.4C37.9981 36.4 36.3047 35.9333 34.8114 35C33.3181 34.0667 32.1314 32.7867 31.2514 31.16C30.3981 29.5333 29.9714 27.68 29.9714 25.6C29.9714 23.4933 30.4114 21.6267 31.2914 20C32.1981 18.3733 33.3981 17.0933 34.8914 16.16C36.3847 15.2267 38.0514 14.76 39.8914 14.76C40.9581 14.76 41.9714 14.92 42.9314 15.24C43.8914 15.56 44.7581 16.0133 45.5314 16.6C46.3047 17.16 46.9714 17.8267 47.5314 18.6C48.0914 19.3733 48.4914 20.2133 48.7314 21.12L47.9314 20.6L48.1314 15.2H50.0514V36H48.0514V30.8L48.7314 30.04C48.4914 30.92 48.0914 31.7467 47.5314 32.52C46.9714 33.2933 46.3047 33.9733 45.5314 34.56C44.7581 35.1467 43.8914 35.6 42.9314 35.92C41.9714 36.24 40.9581 36.4 39.8914 36.4ZM40.1714 34.4C41.6914 34.4 43.0514 34.0267 44.2514 33.28C45.4781 32.5067 46.4381 31.4667 47.1314 30.16C47.8514 28.8267 48.2114 27.2933 48.2114 25.56C48.2114 23.8533 47.8647 22.3467 47.1714 21.04C46.4781 19.7067 45.5181 18.6667 44.2914 17.92C43.0914 17.1467 41.7181 16.76 40.1714 16.76C38.5981 16.76 37.1981 17.1467 35.9714 17.92C34.7714 18.6667 33.8247 19.7067 33.1314 21.04C32.4381 22.3467 32.0914 23.8533 32.0914 25.56C32.0914 27.24 32.4247 28.7467 33.0914 30.08C33.7847 31.4133 34.7314 32.4667 35.9314 33.24C37.1581 34.0133 38.5714 34.4 40.1714 34.4ZM53.5083 36V15.2H55.4283L55.6283 19.84H55.3483C55.6416 18.96 56.0949 18.1333 56.7083 17.36C57.3216 16.5867 58.0683 15.96 58.9483 15.48C59.8549 15 60.8949 14.76 62.0683 14.76C62.5216 14.76 62.9349 14.8 63.3083 14.88C63.7083 14.9333 64.0683 15 64.3883 15.08L63.7883 17.4C63.4149 17.24 63.0549 17.1333 62.7083 17.08C62.3616 17.0267 62.0549 17 61.7883 17C60.7216 17 59.7883 17.1867 58.9883 17.56C58.2149 17.9333 57.5616 18.4533 57.0283 19.12C56.5216 19.76 56.1349 20.4933 55.8683 21.32C55.6283 22.1467 55.5083 23.0133 55.5083 23.92V36H53.5083ZM65.8173 36V15.2H67.8173V36H65.8173ZM66.8173 10.84C66.2307 10.84 65.7773 10.68 65.4573 10.36C65.1373 10.04 64.9773 9.6 64.9773 9.04C64.9773 8.50667 65.1373 8.08 65.4573 7.76C65.7773 7.41333 66.2307 7.24 66.8173 7.24C67.404 7.24 67.8573 7.4 68.1773 7.72C68.4973 8.04 68.6573 8.48 68.6573 9.04C68.6573 9.57333 68.4973 10.0133 68.1773 10.36C67.8573 10.68 67.404 10.84 66.8173 10.84ZM80.4648 36.4C78.5715 36.4 76.8782 35.9333 75.3848 35C73.8915 34.0667 72.7048 32.7867 71.8248 31.16C70.9715 29.5333 70.5448 27.68 70.5448 25.6C70.5448 23.4933 70.9848 21.6267 71.8648 20C72.7715 18.3733 73.9715 17.0933 75.4648 16.16C76.9582 15.2267 78.6248 14.76 80.4648 14.76C81.5315 14.76 82.5448 14.92 83.5048 15.24C84.4648 15.56 85.3315 16.0133 86.1048 16.6C86.8782 17.16 87.5448 17.8267 88.1048 18.6C88.6648 19.3733 89.0648 20.2133 89.3048 21.12L88.5048 20.6L88.7048 15.2H90.6248V36H88.6248V30.8L89.3048 30.04C89.0648 30.92 88.6648 31.7467 88.1048 32.52C87.5448 33.2933 86.8782 33.9733 86.1048 34.56C85.3315 35.1467 84.4648 35.6 83.5048 35.92C82.5448 36.24 81.5315 36.4 80.4648 36.4ZM80.7448 34.4C82.2648 34.4 83.6248 34.0267 84.8248 33.28C86.0515 32.5067 87.0115 31.4667 87.7048 30.16C88.4248 28.8267 88.7848 27.2933 88.7848 25.56C88.7848 23.8533 88.4382 22.3467 87.7448 21.04C87.0515 19.7067 86.0915 18.6667 84.8648 17.92C83.6648 17.1467 82.2915 16.76 80.7448 16.76C79.1715 16.76 77.7715 17.1467 76.5448 17.92C75.3448 18.6667 74.3982 19.7067 73.7048 21.04C73.0115 22.3467 72.6648 23.8533 72.6648 25.56C72.6648 27.24 72.9982 28.7467 73.6648 30.08C74.3582 31.4133 75.3048 32.4667 76.5048 33.24C77.7315 34.0133 79.1448 34.4 80.7448 34.4ZM94.0817 36V15.2H96.0017L96.2017 19.6H95.9617C96.2551 18.72 96.7884 17.92 97.5617 17.2C98.3351 16.4533 99.2551 15.8667 100.322 15.44C101.415 14.9867 102.562 14.76 103.762 14.76C105.228 14.76 106.468 15.0667 107.482 15.68C108.522 16.2933 109.295 17.24 109.802 18.52C110.335 19.8 110.602 21.4267 110.602 23.4V36H108.602V23.48C108.602 21.9333 108.388 20.6667 107.962 19.68C107.562 18.6667 106.962 17.92 106.162 17.44C105.362 16.9333 104.362 16.68 103.162 16.68C102.122 16.68 101.175 16.8667 100.322 17.24C99.4684 17.5867 98.7217 18.0667 98.0817 18.68C97.4417 19.2933 96.9484 20 96.6017 20.8C96.2551 21.5733 96.0817 22.4 96.0817 23.28V36H95.0817C95.0551 36 94.9617 36 94.8017 36C94.6684 36 94.4284 36 94.0817 36ZM122.266 36.4C120.373 36.4 118.68 35.9333 117.186 35C115.693 34.0667 114.506 32.7867 113.626 31.16C112.773 29.5333 112.346 27.68 112.346 25.6C112.346 23.4933 112.786 21.6267 113.666 20C114.573 18.3733 115.773 17.0933 117.266 16.16C118.76 15.2267 120.426 14.76 122.266 14.76C123.333 14.76 124.346 14.92 125.306 15.24C126.266 15.56 127.133 16.0133 127.906 16.6C128.68 17.16 129.346 17.8267 129.906 18.6C130.466 19.3733 130.866 20.2133 131.106 21.12L130.306 20.6L130.506 15.2H132.426V36H130.426V30.8L131.106 30.04C130.866 30.92 130.466 31.7467 129.906 32.52C129.346 33.2933 128.68 33.9733 127.906 34.56C127.133 35.1467 126.266 35.6 125.306 35.92C124.346 36.24 123.333 36.4 122.266 36.4ZM122.546 34.4C124.066 34.4 125.426 34.0267 126.626 33.28C127.853 32.5067 128.813 31.4667 129.506 30.16C130.226 28.8267 130.586 27.2933 130.586 25.56C130.586 23.8533 130.24 22.3467 129.546 21.04C128.853 19.7067 127.893 18.6667 126.666 17.92C125.466 17.1467 124.093 16.76 122.546 16.76C120.973 16.76 119.573 17.1467 118.346 17.92C117.146 18.6667 116.2 19.7067 115.506 21.04C114.813 22.3467 114.466 23.8533 114.466 25.56C114.466 27.24 114.8 28.7467 115.466 30.08C116.16 31.4133 117.106 32.4667 118.306 33.24C119.533 34.0133 120.946 34.4 122.546 34.4Z" fill="#222222"/>
</svg>
