<svg width="800" height="600" viewBox="0 0 800 600" fill="none" xmlns="http://www.w3.org/2000/svg">
<path fill-rule="evenodd" clip-rule="evenodd" d="M100 0C44.7717 0 0 44.7717 0 100V400C0 443.737 28.0789 480.917 67.1937 494.493C72.812 553.693 122.665 600 183.333 600C242.108 600 290.731 556.537 298.819 500H501.18C509.27 556.537 557.893 600 616.667 600C677.337 600 727.187 553.693 732.807 494.493C771.92 480.917 800 443.737 800 400V258.383C800 234.16 791.207 210.761 775.257 192.532L695.007 100.816C676.017 79.1147 648.587 66.6667 619.75 66.6667H560.977C547.25 27.827 510.207 0 466.667 0H100ZM133.333 481.203V485.463C134.449 512.113 156.408 533.377 183.333 533.377C210.259 533.377 232.217 512.113 233.333 485.463V481.203C232.217 454.553 210.259 433.29 183.333 433.29C156.408 433.29 134.449 454.553 133.333 481.203ZM183.333 366.667C229.873 366.667 270.048 393.917 288.773 433.333H511.227C529.95 393.917 570.127 366.667 616.667 366.667C660.817 366.667 699.237 391.19 719.053 427.357C727.687 421.333 733.333 411.327 733.333 400V266.667H566.667C529.847 266.667 500 236.82 500 200V100C500 81.5907 485.077 66.6667 466.667 66.6667H100C81.5907 66.6667 66.6667 81.5907 66.6667 100V400C66.6667 411.327 72.315 421.333 80.9483 427.357C100.764 391.19 139.185 366.667 183.333 366.667ZM566.667 133.333V166.667C566.667 185.076 581.59 200 600 200H693.207L644.833 144.716C638.507 137.483 629.36 133.333 619.75 133.333H566.667ZM566.667 481.203V485.463C567.783 512.113 589.74 533.377 616.667 533.377C643.593 533.377 665.55 512.113 666.667 485.463V481.203C665.55 454.553 643.593 433.29 616.667 433.29C589.74 433.29 567.783 454.553 566.667 481.203Z" fill="#222222"/>
</svg>
