<svg width="767" height="739" viewBox="0 0 767 739" fill="none" xmlns="http://www.w3.org/2000/svg">
<path fill-rule="evenodd" clip-rule="evenodd" d="M525.833 4.40421C583.063 -13.083 642.737 23.2736 653.443 82.1509L664.54 143.19C704.487 156.299 733.333 193.893 733.333 238.224V330.354C753.79 348.664 766.667 375.274 766.667 404.891V471.558C766.667 501.174 753.79 527.784 733.333 546.094V638.224C733.333 693.454 688.563 738.224 633.333 738.224H100C44.7717 738.224 0 693.454 0 638.224V238.224C0 188.661 36.058 147.519 83.3727 139.6L525.833 4.40421ZM666.667 504.891C685.077 504.891 700 489.968 700 471.558V404.891C700 386.481 685.077 371.558 666.667 371.558H566.667C548.257 371.558 533.333 386.481 533.333 404.891V471.558C533.333 489.968 548.257 504.891 566.667 504.891H666.667ZM666.667 571.558V638.224C666.667 656.634 651.743 671.558 633.333 671.558H100C81.5907 671.558 66.6667 656.634 66.6667 638.224V238.224C66.6667 219.815 81.5907 204.891 100 204.891H633.333C651.667 204.891 666.54 219.69 666.667 237.992V304.891H566.667C511.437 304.891 466.667 349.661 466.667 404.891V471.558C466.667 526.788 511.437 571.558 566.667 571.558H666.667ZM589.847 91.7926L598.04 138.224H300L547.44 65.6579C566.55 59.9256 586.38 72.1473 589.847 91.7926Z" fill="#222222"/>
</svg>
